{"title":"For.Love.Of.Liberty.2010.Part.2.DVDRip.XviD-SPRiNTER","uid":5382795,"size":1524158997,"categoryP":"video","categoryS":"movies","magnet":"?xt=urn:btih:e97b4b26d2e1d041587ae119e86443eeacc232cb&amp;dn=For.Love.Of.Liberty.2010.Part.2.DVDRip.XviD-SPRiNTER&amp;tr=udp%3A%2F%2Ftracker.openbittorrent.com%3A80&amp;tr=udp%3A%2F%2Fopen.demonii.com%3A1337&amp;tr=udp%3A%2F%2Ftracker.coppersurfer.tk%3A6969&amp;tr=udp%3A%2F%2Fexodus.desync.com%3A6969","seeders":0,"leechers":1,"uploader":"TvTeam","files":108,"time":1266794111,"description":" &lt;a href=&quot;http://www.torrentday.com&quot; rel=&quot;nofollow&quot; target=&quot;_NEW&quot;&gt;http://www.torrentday.com&lt;/a&gt; - Your Key To The Scene.\n\n &lt;a href=&quot;\nhttp://www.torrentday.com&quot; rel=&quot;nofollow&quot; target=&quot;_NEW&quot;&gt;\nhttp://www.torrentday.com&lt;/a&gt; :  Clean RAR Scene Releases!\n\n\nEnjoy =)\n\n...................................NFO:....................................\n\n.SPRiNTER proudly presents...\n\n\n\nFor.Love.Of.Liberty.2010.Part.2.DVDRip.XviD-SPRiNTER &lt;a href=&quot;\nhttp://www.imdb.com/title/tt0800037/&quot; rel=&quot;nofollow&quot; target=&quot;_NEW&quot;&gt;\nhttp://www.imdb.com/title/tt0800037/&lt;/a&gt;\nSubtitles: \nDate: 2010.02\n\nDirector: Frank Martin\nGenre: Documentary\nPlot: This High Definition, PBS miniseries uses letters, diaries, speeches, journalistic accounts, historical text and military records to document and acknowledge the sacrifices and accomplishments of African-American service men and women since the earliest days of the republic. The story spans the Revolution to Iraq and examines why, despite enormous injustice, these heroic men and women fought so valiantly for freedoms they themselves did not enjoy.\n\nCast\n\n Halle Berry ...  On-Camera Host \n Avery Brooks ...  Narrator \n Colin Powell ...  Himself \n\nRelease notes:\n\nHybrid Source.\nVob sample included.\n\nEnjoy!\n\normat                           : AVI\nFormat/Info                      : Audio Video Interleave\nFile size                        : 1.37 GiB\nDuration                         : 1h 55mn\nOverall bit rate                 : 1 689 Kbps\nWriting application              : VirtualDubMod 1.5.10.2 (build 2540/release)\nWriting library                  : VirtualDubMod build 2540/release\n\nVideo\nID                               : 0\nFormat                           : MPEG-4 Visual\nFormat profile                   : AdvancedSimple@L5\nFormat settings, BVOP            : Yes\nFormat settings, QPel            : No\nFormat settings, GMC             : No warppoints\nFormat settings, Matrix          : Default (H.263)\nCodec ID                         : XVID\nCodec ID/Hint                    : XviD\nDuration                         : 1h 55mn\nBit rate                         : 1 229 Kbps\nWidth                            : 640 pixels\nHeight                           : 352 pixels\nDisplay aspect ratio             : 16:9\nFrame rate                       : 29.970 fps\nResolution                       : 24 bits\nColorimetry                      : 4:2:0\nScan type                        : Progressive\nBits/(Pixel*Frame)               : 0.182\nStream size                      : 1 018 MiB (73%)\nWriting library                  : XviD 1.2.1 (UTC 2008-12-04)\n\nAudio\nID                               : 1\nFormat                           : AC-3\nFormat/Info                      : Audio Coding 3\nCodec ID                         : 2000\nDuration                         : 1h 55mn\nBit rate mode                    : Constant\nBit rate                         : 448 Kbps\nChannel(s)                       : 6 channels\nChannel positions                : Front: L C R, Surround: L R, LFE\nSampling rate                    : 48.0 KHz\nStream size                      : 371 MiB (27%)\nAlignment                        : Split accross interleaves\nInterleave, duration             : 33 ms (1.00 video frame)\nInterleave, preload duration     : 500 ms","torrent":{"xt":"urn:btih:e97b4b26d2e1d041587ae119e86443eeacc232cb","amp;dn":"For.Love.Of.Liberty.2010.Part.2.DVDRip.XviD-SPRiNTER","amp;tr":["udp%3A%2F%2Ftracker.openbittorrent.com%3A80","udp%3A%2F%2Fopen.demonii.com%3A1337","udp%3A%2F%2Ftracker.coppersurfer.tk%3A6969","udp%3A%2F%2Fexodus.desync.com%3A6969"],"infoHash":"e97b4b26d2e1d041587ae119e86443eeacc232cb","infoHashBuffer":{"type":"Buffer","data":[233,123,75,38,210,225,208,65,88,122,225,25,232,100,67,238,172,194,50,203]},"announce":[],"urlList":[]}}